<svg width="30" height="30" viewBox="0 0 30 30" fill="none" xmlns="http://www.w3.org/2000/svg">
<path d="M28.75 12.1375C28.8118 10.3483 28.4205 8.5725 27.6125 6.97498C27.0642 6.31948 26.3034 5.87712 25.4625 5.72498C21.9844 5.40939 18.4919 5.28004 15 5.33748C11.5208 5.27743 8.04086 5.40261 4.57497 5.71248C3.88975 5.83713 3.25562 6.15853 2.74997 6.63748C1.62497 7.67498 1.49997 9.44998 1.37497 10.95C1.19361 13.6469 1.19361 16.353 1.37497 19.05C1.41114 19.8942 1.53684 20.7323 1.74997 21.55C1.90069 22.1813 2.20563 22.7654 2.63747 23.25C3.14656 23.7543 3.79545 24.094 4.49997 24.225C7.19487 24.5576 9.91024 24.6955 12.625 24.6375C17 24.7 20.8375 24.6375 25.375 24.2875C26.0968 24.1645 26.764 23.8244 27.2875 23.3125C27.6374 22.9624 27.8988 22.5339 28.05 22.0625C28.497 20.6908 28.7166 19.2551 28.7 17.8125C28.75 17.1125 28.75 12.8875 28.75 12.1375ZM12.175 18.5625V10.825L19.575 14.7125C17.5 15.8625 14.7625 17.1625 12.175 18.5625Z" fill="#FF0000"/>
</svg>
