<svg xmlns="http://www.w3.org/2000/svg" viewBox="0 0 200 35.67"><defs><style>.cls-1{fill:#141414;}.cls-2{fill:#ef1b1b;}</style></defs><g id="Layer_2" data-name="Layer 2"><g id="Layer_1-2" data-name="Layer 1"><path class="cls-1" d="M16.46,12.57a6.67,6.67,0,0,1-2.85,2.73,10.65,10.65,0,0,1-5,1.05H4.07V26.42H0V1.61H8.57a10.76,10.76,0,0,1,4.84,1,6.76,6.76,0,0,1,3,2.66,7.24,7.24,0,0,1,1,3.75A7.44,7.44,0,0,1,16.46,12.57ZM12,12a3.83,3.83,0,0,0,1.15-3c0-2.72-1.54-4.07-4.61-4.07H4.07V13h4.5A5,5,0,0,0,12,12Z"/><path class="cls-1" d="M35.44,7.39a6.87,6.87,0,0,1,2.79,2.86,9.61,9.61,0,0,1,1,4.57v11.6h-4v-11a5.72,5.72,0,0,0-1.32-4.06A4.71,4.71,0,0,0,30.28,10a4.75,4.75,0,0,0-3.62,1.41,5.63,5.63,0,0,0-1.34,4.06v11H21.25V0h4.07V9a6.79,6.79,0,0,1,2.62-1.92,8.64,8.64,0,0,1,3.48-.68A8.3,8.3,0,0,1,35.44,7.39Z"/><path class="cls-1" d="M47.92,25.48a9.11,9.11,0,0,1-3.53-3.57,10.77,10.77,0,0,1-1.29-5.34,10.58,10.58,0,0,1,1.32-5.32A9,9,0,0,1,48,7.68a11,11,0,0,1,10.21,0,9.11,9.11,0,0,1,3.61,3.57,10.58,10.58,0,0,1,1.32,5.32,10.3,10.3,0,0,1-1.36,5.32,9.39,9.39,0,0,1-3.7,3.59A10.65,10.65,0,0,1,53,26.75,10.14,10.14,0,0,1,47.92,25.48Zm8-3a5.68,5.68,0,0,0,2.23-2.25A7.23,7.23,0,0,0,59,16.57a7.38,7.38,0,0,0-.82-3.63A5.58,5.58,0,0,0,56,10.71,5.94,5.94,0,0,0,53.06,10a5.87,5.87,0,0,0-2.91.75A5.38,5.38,0,0,0,48,12.94a7.61,7.61,0,0,0-.79,3.63,6.88,6.88,0,0,0,1.63,4.91A5.37,5.37,0,0,0,53,23.21,6.06,6.06,0,0,0,55.9,22.46Z"/><path class="cls-1" d="M83.16,25.48a9.18,9.18,0,0,1-3.53-3.57,10.77,10.77,0,0,1-1.29-5.34,10.58,10.58,0,0,1,1.32-5.32,9.18,9.18,0,0,1,3.61-3.57,11,11,0,0,1,10.21,0,9,9,0,0,1,3.61,3.57,10.58,10.58,0,0,1,1.32,5.32,10.39,10.39,0,0,1-1.35,5.32,9.46,9.46,0,0,1-3.7,3.59,10.72,10.72,0,0,1-5.16,1.27A10.14,10.14,0,0,1,83.16,25.48Zm8-3a5.74,5.74,0,0,0,2.23-2.25,7.23,7.23,0,0,0,.85-3.64,7.38,7.38,0,0,0-.82-3.63,5.51,5.51,0,0,0-2.18-2.23A5.93,5.93,0,0,0,88.31,10a5.84,5.84,0,0,0-2.91.75,5.34,5.34,0,0,0-2.13,2.23,7.73,7.73,0,0,0-.78,3.63,6.92,6.92,0,0,0,1.62,4.91,5.39,5.39,0,0,0,4.09,1.73A6.07,6.07,0,0,0,91.15,22.46Z"/><path class="cls-1" d="M116.23,25.8a7.37,7.37,0,0,1-3.14-2.48,6.25,6.25,0,0,1-1.15-3.75h4.36a4,4,0,0,0,1.27,2.64,4.49,4.49,0,0,0,3.16,1,4.84,4.84,0,0,0,3.28-1,3.3,3.3,0,0,0,1.18-2.63,2.84,2.84,0,0,0-.73-2,5.07,5.07,0,0,0-1.82-1.22,28.33,28.33,0,0,0-3-.92,28.19,28.19,0,0,1-3.94-1.31,6.41,6.41,0,0,1-2.59-2A5.9,5.9,0,0,1,112,8.36a6.55,6.55,0,0,1,1.07-3.75,6.81,6.81,0,0,1,3-2.47,10.89,10.89,0,0,1,4.46-.85,9.33,9.33,0,0,1,5.91,1.8A6.61,6.61,0,0,1,129,8h-4.5a3.29,3.29,0,0,0-1.28-2.32,4.78,4.78,0,0,0-3.11-1,4.44,4.44,0,0,0-2.86.89,3.13,3.13,0,0,0-1.1,2.57,2.63,2.63,0,0,0,.69,1.88,5,5,0,0,0,1.77,1.16c.72.28,1.69.59,2.93.93a31.1,31.1,0,0,1,4,1.35,6.82,6.82,0,0,1,2.64,2.09,6,6,0,0,1,1.09,3.77,6.77,6.77,0,0,1-1,3.57,7.4,7.4,0,0,1-3,2.7,9.77,9.77,0,0,1-4.59,1A11.15,11.15,0,0,1,116.23,25.8Z"/><path class="cls-2" d="M149.29,25.48a9.18,9.18,0,0,1-3.53-3.57,10.77,10.77,0,0,1-1.29-5.34,10.48,10.48,0,0,1,1.33-5.32,9.09,9.09,0,0,1,3.6-3.57,11,11,0,0,1,10.21,0,9,9,0,0,1,3.61,3.57,10.58,10.58,0,0,1,1.32,5.32,10.39,10.39,0,0,1-1.35,5.32,9.46,9.46,0,0,1-3.7,3.59,10.72,10.72,0,0,1-5.16,1.27A10.14,10.14,0,0,1,149.29,25.48Zm8-3a5.74,5.74,0,0,0,2.23-2.25,7.23,7.23,0,0,0,.85-3.64,7.38,7.38,0,0,0-.82-3.63,5.51,5.51,0,0,0-2.18-2.23,5.93,5.93,0,0,0-2.92-.75,5.84,5.84,0,0,0-2.91.75,5.4,5.4,0,0,0-2.13,2.23,7.73,7.73,0,0,0-.78,3.63,6.92,6.92,0,0,0,1.62,4.91,5.39,5.39,0,0,0,4.09,1.73A6.07,6.07,0,0,0,157.28,22.46Z"/><path class="cls-1" d="M175,7.27a7,7,0,0,1,3.52-.84v4.21h-1a5,5,0,0,0-3.62,1.22c-.82.8-1.23,2.21-1.23,4.21V26.42h-4.07V6.75h4.07V9.61A6.33,6.33,0,0,1,175,7.27Z"/><path class="cls-1" d="M200,6.75,187.93,35.67h-4.21l4-9.57L180,6.75h4.53l5.54,15,5.75-15Z"/><polygon class="cls-1" points="137.26 6.75 137.26 1.86 133.16 1.86 133.16 26.42 137.26 26.42 137.26 10.07 142.05 10.07 142.05 6.75 137.26 6.75"/><rect class="cls-1" x="133.43" y="23.1" width="8.62" height="3.32"/><polygon class="cls-1" points="71.13 6.75 71.13 1.86 67.02 1.86 67.02 26.42 71.13 26.42 71.13 10.07 75.92 10.07 75.92 6.75 71.13 6.75"/><rect class="cls-1" x="70.36" y="23.1" width="5.56" height="3.32"/><rect class="cls-1" x="166.17" y="23.1" width="8.89" height="3.32"/></g></g></svg>