<svg width="96" height="24" viewBox="0 0 96 24" fill="none" xmlns="http://www.w3.org/2000/svg">
<g clip-path="url(#clip0_6502_17042)">
<path d="M64.5661 7.22124C64.5661 8.39424 63.6152 9.34514 62.4423 9.34514C61.2693 9.34514 60.3184 8.39424 60.3184 7.22124C60.3184 6.04825 61.2693 5.09735 62.4423 5.09735C63.6152 5.09735 64.5661 6.04825 64.5661 7.22124Z" fill="#FF8A00"/>
<path fill-rule="evenodd" clip-rule="evenodd" d="M55.8125 6.91719V6.91717H57.0167L57.0167 6.91719H55.8125ZM57.9112 6.9172V6.91717H59.1142V6.9172H57.9112ZM57.9322 6.47859L59.1142 6.91635C59.1146 5.08966 60.5956 3.60899 62.4224 3.60899C64.2495 3.60899 65.7306 5.09012 65.7306 6.9172H66.9336C66.9336 6.91719 66.9336 6.91718 66.9336 6.91717H65.7319L66.9127 6.47986C66.6927 4.1936 64.7663 2.406 62.4224 2.406C60.0789 2.406 58.1528 4.19294 57.9322 6.47859ZM67.8152 6.14561C67.5766 3.37631 65.253 1.203 62.4219 1.203C59.5913 1.203 57.2682 3.37546 57.0288 6.14398L55.8669 5.71364C56.3072 2.48657 59.0743 0 62.4222 0C65.7706 0 68.5381 2.48728 68.9778 5.71502L67.8152 6.14561ZM67.8271 6.91717C67.8271 6.91717 67.8271 6.91718 67.8271 6.91719H69.0319C69.0319 6.91718 69.0319 6.91717 69.0319 6.91717H67.8271Z" fill="#FF9F2E"/>
<path d="M20.9803 16.207C20.9803 14.9263 20.563 13.2481 17.0486 13.2481C14.1492 13.2481 12.5018 14.4846 12.5018 15.7654C12.5018 16.6486 13.666 17.0019 14.1712 17.0019C14.6324 17.0019 14.8521 16.6928 15.0058 16.2291C15.511 14.4405 16.192 14.1534 16.8289 14.1534C17.5757 14.1534 18.1908 14.573 18.1908 15.8978V16.8473C17.5099 17.3552 15.7307 17.8852 14.3249 18.3489C12.7215 18.9009 12.1943 19.8062 12.1943 20.9545C12.1943 22.5222 13.2267 23.9575 15.2914 23.9575C16.5873 23.9575 17.5538 23.2068 18.2567 22.7431C18.4983 23.4938 18.9376 23.9575 19.8601 23.9575C20.9583 23.9575 21.9468 23.6484 22.5398 23.3393L22.4739 22.6327C22.2103 22.6547 21.793 22.6326 21.5734 22.5443C21.2219 22.4118 20.9803 22.0365 20.9803 20.9324V16.207ZM18.1908 20.8882C18.1908 22.1248 17.3561 22.456 16.7411 22.456C15.8405 22.456 15.1376 21.7494 15.1376 20.6233C15.1376 19.6517 15.4891 19.1217 16.2139 18.7684C16.9168 18.393 17.7075 18.106 18.1908 17.8631V20.8882ZM20.0139 12.0778L17.444 7.81609H16.3896L13.9296 12.0778L14.5665 12.5194L16.6093 10.1567C16.807 9.98005 16.9827 9.95797 17.2463 10.1567L19.3988 12.5194L20.0139 12.0778Z" fill="#52575C"/>
<path d="M24.5728 21.8819C24.5728 22.7872 24.419 22.8535 23.189 22.9418V23.6926H28.6363V22.9418C27.7577 22.8535 27.4282 22.8976 27.4282 21.9923V17.2669C27.4282 16.8915 27.4502 16.5382 27.5161 16.2511C27.8016 15.2796 28.5924 14.7496 29.5149 14.7496C30.701 14.7496 31.1183 15.677 31.1183 16.8694V21.9923C31.1183 22.8976 30.8108 22.8535 29.9103 22.9418V23.6926H35.1599V22.9418C34.3032 22.8535 33.9738 22.8976 33.9738 21.9923V17.2669C33.9738 16.8915 33.9957 16.5161 34.0836 16.2291C34.3252 15.2575 35.094 14.7717 35.9287 14.7496C36.961 14.7496 37.6419 15.4562 37.6419 16.8694V21.9923C37.6419 22.8976 37.3124 22.8535 36.4338 22.9418V23.6926H41.8812V22.9418C40.6511 22.8535 40.4974 22.7872 40.4974 21.8819V16.494C40.4974 14.4846 39.443 13.2481 37.3124 13.2481C35.8188 13.2481 34.5449 14.2859 33.7102 14.8159C33.2709 14.0209 32.4582 13.2481 30.9206 13.2481C29.5149 13.2481 28.4825 14.0209 27.4282 14.7055L27.1866 13.2702L23.2988 13.8664V14.573L24.0456 14.6834C24.419 14.7275 24.5728 14.9042 24.5728 15.6991V21.8819Z" fill="#52575C"/>
<path d="M54.7052 10.6867V13.5793C54.222 13.3585 53.585 13.2481 52.8163 13.2481C51.3007 13.2481 49.9389 13.7339 49.0163 14.595C48.0718 15.5225 47.4788 16.9357 47.4788 18.7905C47.4788 21.926 48.9285 23.9575 51.5643 23.9575C52.3989 23.9575 53.585 23.538 54.7052 22.6547V23.6926H58.9445V22.9197C57.6925 22.8535 57.5607 22.7872 57.5607 21.8598V8.3902L57.4069 8.27979L53.4093 8.80975V9.51635L54.1781 9.62675C54.5515 9.693 54.7052 9.86965 54.7052 10.6867ZM54.7052 20.4687C54.7052 20.8882 54.6613 21.2636 54.4417 21.6169C54.1781 22.1689 53.6509 22.456 52.8822 22.456C51.4105 22.456 50.5099 20.9986 50.5099 18.4151C50.5099 15.4562 51.5423 14.1534 52.9261 14.1534C53.7608 14.1534 54.2879 14.573 54.5295 15.0808C54.7052 15.39 54.7052 15.8316 54.7052 16.2953V20.4687Z" fill="#52575C"/>
<path d="M61.2096 21.8819C61.2096 22.7872 61.0778 22.8535 59.8258 22.9418V23.6926H65.4489V22.9418C64.2188 22.8535 64.0651 22.7872 64.0651 21.8819V11.2274L63.9113 11.0949L59.9356 11.6911V12.3977L60.6825 12.5081C61.0559 12.5523 61.2096 12.7289 61.2096 13.5459V21.8819Z" fill="#52575C"/>
<path d="M75.1122 18.4372C75.7931 18.4372 76.1665 18.2385 76.1665 17.5539C76.1665 15.9641 75.5954 13.2481 71.6418 13.2481C68.0615 13.2481 66.6338 15.655 66.6338 18.6359C66.6338 21.5727 67.8638 23.9796 71.6198 23.9575C74.0359 23.9575 75.3319 22.7431 76.0128 20.9545L75.2879 20.557C74.6729 21.7494 73.8383 22.4781 72.4764 22.4781C70.3019 22.4781 69.643 20.6012 69.6649 18.4372H75.1122ZM69.6649 17.4656C69.6649 16.0966 70.0603 14.1534 71.5759 14.1534C72.9816 14.1534 73.2232 15.8537 73.2232 16.7811C73.2232 17.3111 73.0695 17.4656 72.5643 17.4656H69.6649ZM74.4533 12.0778L71.8614 7.81609H70.8071L68.369 12.0778L68.984 12.5194L71.0267 10.1567C71.2464 9.98005 71.4221 9.95797 71.6857 10.1567L73.8382 12.5194L74.4533 12.0778Z" fill="#52575C"/>
<path d="M78.6915 21.8819C78.6915 22.7872 78.5377 22.8535 77.3077 22.9418V23.6926H82.755V22.9418C81.8764 22.8535 81.5469 22.8976 81.5469 21.9923V17.2669C81.5469 16.8915 81.5689 16.5382 81.6348 16.2511C81.9203 15.2796 82.7111 14.7496 83.6336 14.7496C84.8197 14.7496 85.237 15.677 85.237 16.8694V21.9923C85.237 22.8976 84.9295 22.8535 84.029 22.9418V23.6926H89.2786V22.9418C88.4219 22.8535 88.0925 22.8976 88.0925 21.9923V17.2669C88.0925 16.8915 88.1144 16.5161 88.2023 16.2291C88.4439 15.2575 89.2127 14.7717 90.0473 14.7496C91.0797 14.7496 91.7606 15.4562 91.7606 16.8694V21.9923C91.7606 22.8976 91.4311 22.8535 90.5525 22.9418V23.6926H95.9998V22.9418C94.7698 22.8535 94.6161 22.7872 94.6161 21.8819V16.494C94.6161 14.4846 93.5617 13.2481 91.4311 13.2481C89.9375 13.2481 88.6636 14.2859 87.8289 14.8159C87.3896 14.0209 86.5769 13.2481 85.0393 13.2481C83.6336 13.2481 82.6012 14.0209 81.5469 14.7055L81.3053 13.2702L77.4175 13.8664V14.573L78.1643 14.6834C78.5377 14.7275 78.6915 14.9042 78.6915 15.6991V21.8819Z" fill="#52575C"/>
<rect x="53" y="11" width="5" height="1" fill="#0F6C32"/>
<path d="M76.1706 7C74.45 7 74 7.87354 74 8.35001C74 8.87943 74.5294 8.98531 74.8735 8.98531C75.0588 8.98531 75.4824 8.93237 75.5088 8.50884C75.5353 8.05883 75.4294 7.68824 76.0383 7.68824C76.4088 7.68824 76.6206 7.97942 76.6206 8.40295C76.6206 8.74707 76.4618 8.93237 75.9324 9.38237C75.3236 9.93826 75.4824 10.4677 75.5883 11.0236H76.5677C76.5412 10.7589 76.5941 10.4147 76.753 10.2559C76.9647 10.0441 78.1294 9.93826 78.1559 8.56178C78.1824 7.66177 77.5206 7 76.1706 7Z" fill="#0F6C32"/>
<path d="M7.73166 10.9053H8.65419C10.675 10.9053 10.9605 11.7003 11.5755 13.8642H12.3443V10H0V13.8642H0.768773C1.38379 11.7003 1.66934 10.9053 3.69011 10.9053H4.61264V22.4318C4.61264 23.2267 4.48085 23.5138 3.71207 23.58L2.54793 23.6683V24.4191H9.79636V23.6683L8.65419 23.58C7.84148 23.5138 7.73166 23.2267 7.73166 22.4318V10.9053Z" fill="#52575C"/>
</g>
<defs>
<clipPath id="clip0_6502_17042">
<rect width="96" height="24" fill="white"/>
</clipPath>
</defs>
</svg>
