<svg xmlns="http://www.w3.org/2000/svg" viewBox="0 0 500 122.83">
    <defs>
        <style>.cls-1{fill:#009345;}</style>
    </defs>
    <title>DNews</title>
    <polygon
            points="177.69 74 177.17 74 125.92 0.2 105.14 0.2 105.14 113.74 128.83 113.74 128.83 39.46 129.32 39.46 180.76 113.74 201.37 113.74 201.37 0.2 177.69 0.2 177.69 74"/>
    <path d="M274.45,32.89q-9-5.24-21.36-5.23t-21.44,5.39a36.68,36.68,0,0,0-14.13,15.26q-5,9.88-5,23.33v.08q0,13.45,5,23.29a35.84,35.84,0,0,0,14.32,15.15q9.28,5.31,22.19,5.31a47.82,47.82,0,0,0,15.78-2.36,36.07,36.07,0,0,0,11.41-6.3,33.15,33.15,0,0,0,7.43-8.65,30.77,30.77,0,0,0,3.7-9.36l.24-.87H271.5l-.16.47a12.44,12.44,0,0,1-3,4.65,17.24,17.24,0,0,1-5.66,3.77,20.51,20.51,0,0,1-8.19,1.5,19.39,19.39,0,0,1-10.3-2.64,17.09,17.09,0,0,1-6.65-7.59,27.34,27.34,0,0,1-2.31-11h58.05V69.91q0-12.75-4.91-22.27A35.55,35.55,0,0,0,274.45,32.89ZM244,47.41a18.69,18.69,0,0,1,18.88-.08,16.79,16.79,0,0,1,6.34,7.51,25.85,25.85,0,0,1,2,7.68H235.51a24.88,24.88,0,0,1,2-7.52A17.17,17.17,0,0,1,244,47.41Z"/>
    <polygon
            points="385.94 91.94 385.47 91.94 370.44 29.39 348.41 29.39 333.46 91.94 332.99 91.94 320.25 29.39 297.03 29.39 319.54 113.74 343.69 113.74 358.88 54.09 359.35 54.09 374.62 113.74 399.08 113.74 421.43 29.39 398.77 29.39 385.94 91.94"/>
    <path d="M494.22,73.22q-5.79-5.5-19.08-8.27l-14.32-3.06q-6.37-1.35-8.9-3.55a6.89,6.89,0,0,1-2.51-5.42v-.08A7.3,7.3,0,0,1,451,48.12a10.15,10.15,0,0,1,4.49-3.07,19.13,19.13,0,0,1,6.84-1.1q6.38,0,10,3a11.26,11.26,0,0,1,4.21,7.51l.08.63H497.8v-.79a24.46,24.46,0,0,0-4.45-13.45,28.86,28.86,0,0,0-12-9.64q-7.83-3.58-19-3.58a49.31,49.31,0,0,0-18.69,3.26,28.24,28.24,0,0,0-12.35,9.17,22.91,22.91,0,0,0-4.37,14v.07a20.94,20.94,0,0,0,6.22,15.58q6.21,6.14,18.49,8.66l14.32,3.07q6.21,1.33,8.65,3.38A6.74,6.74,0,0,1,477,90.29v.08a7,7,0,0,1-1.69,4.72,10.76,10.76,0,0,1-4.76,3,22.94,22.94,0,0,1-7.47,1.06q-6.86,0-10.7-2.75a12.38,12.38,0,0,1-5-7.71l-.16-.71H424.86l.07.71a28.15,28.15,0,0,0,5.51,14,29.83,29.83,0,0,0,12.79,9.41q8.22,3.38,19.87,3.38a50,50,0,0,0,19.16-3.42,30.91,30.91,0,0,0,13-9.56A22.94,22.94,0,0,0,500,88.09V88Q500,78.72,494.22,73.22Z"/>
    <path class="cls-1"
          d="M47,113.13a41.94,41.94,0,0,0,10.34-1.62c26.34-8.69,40.4-32,36.7-60.91C90.71,24.33,67.36,2.86,39.78.66,30.05-.11,20,0,10.26.05,6.84.08,3.42.11,0,.1V72H25.5V24.84l4.79-.32c1-.08,1.89-.13,2.73-.12C53,25,68.62,40,68.7,58.68,68.78,78.5,54.1,92.84,33,93.55c-7.73.26-15.56.18-23.13.1-3.28,0-6.57-.07-9.86-.08v29.26c6.18-5.3,17.79-9.44,39-9.45C41.6,113.36,44.34,113.29,47,113.13Z"/>
</svg>